<?xml version="1.0" standalone="no"?>
<!DOCTYPE svg PUBLIC "-//W3C//DTD SVG 20010904//EN"
 "http://www.w3.org/TR/2001/REC-SVG-20010904/DTD/svg10.dtd">
<svg version="1.0" xmlns="http://www.w3.org/2000/svg"
 width="1024.000000pt" height="1024.000000pt" viewBox="0 0 1024.000000 1024.000000"
 preserveAspectRatio="xMidYMid meet">
<metadata>
Created by potrace 1.14, written by Peter Selinger 2001-2017
</metadata>
<g transform="translate(0.000000,1024.000000) scale(0.100000,-0.100000)"
fill="#000000" stroke="none">
<path d="M4938 8955 c-2 -1 -48 -5 -103 -9 -97 -6 -156 -12 -222 -21 -18 -3
-57 -8 -85 -11 -29 -4 -56 -8 -59 -10 -4 -2 -24 -6 -45 -10 -22 -3 -79 -14
-129 -25 -49 -11 -98 -22 -107 -24 -247 -54 -681 -225 -921 -362 -34 -19 -76
-43 -93 -53 -263 -151 -535 -362 -774 -600 -85 -85 -173 -177 -195 -204 -22
-27 -44 -54 -50 -60 -82 -91 -256 -337 -342 -481 -226 -378 -402 -830 -478
-1230 -8 -44 -17 -91 -20 -105 -13 -67 -34 -234 -42 -345 -15 -179 -7 -629 11
-735 3 -14 7 -51 11 -82 15 -153 76 -428 139 -631 210 -674 604 -1283 1131
-1748 28 -24 52 -47 55 -50 9 -10 193 -153 245 -191 245 -176 524 -331 775
-433 63 -25 124 -50 135 -55 50 -21 263 -90 325 -105 166 -40 248 -59 310 -70
113 -21 130 -24 190 -30 30 -4 62 -8 70 -10 15 -4 122 -14 220 -20 78 -5 386
-5 445 0 28 2 84 6 125 9 64 5 249 28 315 40 11 2 38 7 60 11 22 4 78 16 125
27 47 11 92 21 100 23 71 15 309 88 370 113 14 6 63 25 108 42 46 17 91 35
100 40 10 4 35 16 57 25 138 59 356 178 520 283 97 63 304 213 335 243 8 8 29
25 45 38 29 22 208 185 249 227 197 199 345 381 495 607 243 367 395 707 521
1167 11 40 39 163 46 200 2 14 11 61 19 105 8 44 17 103 20 130 4 28 8 61 10
74 27 164 27 702 0 891 -2 14 -6 48 -9 75 -22 182 -85 460 -153 670 -57 177
-172 458 -225 550 -7 11 -26 47 -43 80 -173 327 -395 625 -675 906 -315 316
-628 540 -1030 740 -357 177 -782 311 -1130 354 -30 4 -57 8 -60 10 -3 2 -43
6 -90 10 -47 4 -94 9 -105 12 -21 4 -492 12 -497 8z m438 -369 c114 -8 195
-17 280 -32 372 -62 671 -156 992 -311 571 -276 1068 -719 1420 -1265 184
-287 340 -637 426 -958 27 -101 63 -258 72 -317 3 -19 7 -44 9 -55 3 -11 7
-46 10 -77 4 -31 8 -67 11 -81 24 -149 24 -599 0 -790 -8 -57 -17 -127 -22
-160 -9 -59 -65 -324 -70 -332 -3 -5 -7 -18 -9 -31 -3 -12 -23 -76 -45 -142
-22 -66 -42 -129 -45 -140 -2 -11 -9 -29 -14 -40 -5 -11 -28 -65 -51 -119 -59
-141 -195 -407 -212 -414 -5 -2 -8 -8 -8 -14 0 -14 -117 -193 -189 -288 -172
-231 -412 -480 -626 -651 -282 -225 -640 -428 -950 -541 -44 -16 -89 -33 -100
-38 -59 -28 -383 -112 -520 -135 -16 -3 -43 -7 -60 -10 -16 -3 -52 -8 -80 -11
-27 -3 -56 -7 -63 -9 -71 -25 -750 -25 -824 0 -7 2 -35 6 -63 9 -49 5 -185 29
-235 41 -14 3 -47 10 -75 16 -136 26 -408 115 -585 191 -257 110 -559 286
-760 444 -272 214 -516 468 -720 749 -118 164 -289 465 -354 625 -15 36 -31
74 -36 85 -50 107 -148 421 -174 555 -2 14 -11 57 -20 95 -8 39 -17 90 -20
115 -3 25 -10 78 -16 117 -29 208 -33 657 -6 823 2 14 7 48 11 75 12 95 16
120 20 135 2 8 7 31 10 50 3 19 8 42 10 50 2 8 7 31 10 50 3 19 11 53 16 75 6
22 13 47 14 55 8 36 76 252 103 325 202 543 554 1056 977 1420 38 33 77 66 85
74 27 26 233 176 310 227 331 216 678 368 1058 463 64 17 131 32 147 35 39 7
143 26 175 31 14 3 48 8 75 11 28 3 61 8 75 10 14 2 81 7 150 10 69 4 126 7
127 8 5 4 277 -2 359 -8z"/>
<path d="M2602 6955 c11 -20 58 -126 58 -130 0 -2 13 -32 29 -67 16 -35 75
-169 131 -298 56 -129 110 -253 120 -275 10 -22 53 -119 95 -215 42 -96 82
-188 90 -205 7 -16 63 -144 124 -284 62 -139 122 -277 135 -305 13 -28 50
-114 84 -191 33 -77 71 -165 85 -195 14 -30 47 -107 75 -170 27 -63 74 -171
105 -240 30 -69 94 -215 142 -325 48 -110 97 -222 110 -250 12 -27 44 -99 70
-160 26 -60 63 -143 81 -183 19 -40 34 -75 34 -77 0 -3 45 -106 100 -230 55
-125 100 -228 100 -230 0 -2 15 -36 34 -77 18 -40 48 -106 67 -146 39 -87 96
-143 166 -163 37 -10 150 -14 478 -14 456 -1 494 2 557 46 69 49 52 17 278
534 67 154 131 300 142 325 11 24 54 121 95 215 41 93 83 188 93 210 10 22
104 238 210 480 222 508 223 509 261 593 16 35 29 65 29 67 0 3 11 28 24 57
48 106 66 147 154 348 84 194 101 231 158 358 13 29 24 54 24 57 0 2 13 32 29
67 16 35 75 169 131 298 56 129 110 253 120 275 10 22 42 94 70 160 29 66 65
147 80 180 33 71 60 135 60 143 0 3 -24 -17 -52 -44 -149 -139 -350 -262 -583
-354 -72 -29 -217 -76 -257 -84 -13 -3 -63 -14 -113 -25 -49 -11 -108 -22
-130 -26 -22 -3 -51 -7 -65 -10 -60 -9 -223 -25 -310 -30 -166 -9 -214 -16
-265 -40 -88 -42 -119 -83 -170 -228 -52 -150 -445 -1230 -455 -1252 -5 -11
-30 -80 -56 -152 -25 -73 -49 -133 -53 -133 -3 0 -140 371 -305 823 -195 540
-308 836 -326 860 -68 92 -122 110 -360 122 -102 5 -142 8 -245 21 -59 7 -101
13 -135 19 -14 3 -41 7 -60 10 -63 10 -243 56 -332 85 -288 96 -556 252 -717
419 -24 25 -42 42 -39 36z"/>
</g>
</svg>
